# xmcd CD database file
#
# Track frame offsets:
#	150
#	5608
#	27946
#	47747
#	70397
#	92563
#	114333
#	132253
#	152297
#	173450
#
# Disc length: 2457 seconds
#
# Revision: 0
# Processed by: cddbd v1.5.1PL0 Copyright (c) Steve Scherf et al.
# Submitted via: CDex 1.50beta9
#
DISCID=7009970a
DTITLE=一青窈 - 月天心
DYEAR=1900
DGENRE=Japanese Pop
TTITLE0=あこるでぃおん
TTITLE1=もらい泣き
TTITLE2=sunny side up
TTITLE3=ｲﾏﾄﾞｺ
TTITLE4=犬
TTITLE5=月天心
TTITLE6=ジャングルジム
TTITLE7=心変わり
TTITLE8=アリガ十々
TTITLE9=望春風
EXTD=
EXTT0=
EXTT1=
EXTT2=
EXTT3=
EXTT4=
EXTT5=
EXTT6=
EXTT7=
EXTT8=
EXTT9=
PLAYORDER=
